<?xml version="1.0" encoding="utf-8"?>
<!-- Generator: Adobe Illustrator 24.0.0, SVG Export Plug-In . SVG Version: 6.00 Build 0)  -->
<svg version="1.1" id="Layer_1" xmlns="http://www.w3.org/2000/svg" xmlns:xlink="http://www.w3.org/1999/xlink" x="0px" y="0px"
	 viewBox="0 0 1275 394" style="enable-background:new 0 0 1275 394;" xml:space="preserve">
<style type="text/css">
	.st0{fill-rule:evenodd;clip-rule:evenodd;}
</style>
<path class="st0" d="M783.19,7c5.33,0,10.67,0,16,0c2.11,4.11,1.72,3.05,5.33,5.33c2.72,25.89-3.2,39.23-8.89,62.23
	c-2.81,11.34-2,37.89-5.33,53.34c-2.24,10.38,0.31,22.14,1.78,30.23c1.41,7.76,1.03,29.66-1.78,39.12
	c-1.03,3.48,2.03,0.98,3.56,1.78c1.02,5.48-1.64,31.97-3.56,42.67c-8.52,1.51-15.61-0.05-23.11-3.56
	c0.33-11.54-5.98-19.15-3.56-33.78c-4.83,0.15-2.78,1.03-3.56-5.33c-11.65-18.96-1.13-42.68-5.33-67.56
	c-5.87-34.69,0.43-90.81,16-115.57C774.9,12.93,779.05,9.96,783.19,7z"/>
<path class="st0" d="M1128.12,387.49c-10.79-109.57-21.76-204.15-21.34-316.48c-16.13,0.21-26.93,5.66-40.89,8.89
	c-3.38,6.4-3.79,15.64-3.56,26.67c-4.29,8.35,2.49,16.91,0,32c-6.14,37.19,6.35,81.54,7.11,122.68c-3.56,0.59-7.11,1.19-10.67,1.78
	c-3.79-3.24-6.7-3.49-14.22-3.56c-1.87-15.94-14.56-28.93-17.78-44.45c-7.8-37.57-6.78-76.53-7.11-119.12
	c-4.77-2.55-7.49-3.5-16-3.56c-6.23,3.26-29.93,2.37-40.89,0c0-1.19,0-2.37,0-3.56c-4.37-5.74-3.49-13.74-1.78-21.34
	c8.05-1.7,9.78-6.63,16-8.89c17.19-2.96,34.38-5.93,51.56-8.89c2.4-0.93,9.65-6.26,12.45-7.11c25.15-7.64,49.65,0.33,72.9-8.89
	c6.73-2.67,10.7-10.71,19.56-12.45c7.64-1.5,8.62,3.41,14.22,5.33c12.47,4.28,30.12-2.3,39.12-3.56
	c10.21-1.42,16.82,2.13,26.67,3.56c14.78,2.13,37.27-2.59,48.01,1.78c1.4,2.29,1.53,4.42,1.78,8.89c2.25,4.11,0.95,5.7,0,10.67
	c-15.55,1.86-94.92,10.08-103.12,16c-12.58,19.39-5.47,50.53-7.11,76.45c-2.24,35.5-1.23,77.38-5.33,112.01
	c-2.39,20.15,4.99,40.7,1.78,56.9c-4.93,24.85,8.24,60.06-3.56,80.01c-2.54,1.55-5.81,1.68-10.67,1.78
	C1132.29,387.89,1133.68,388.72,1128.12,387.49z"/>
<path class="st0" d="M726.3,42.56c5.93,0.59,11.85,1.19,17.78,1.78c1.61,5.96,2.86,7.57,7.11,10.67
	c-7.78,46.32,6.24,105.91-5.33,154.68c-4.15,1.19-8.3,2.37-12.45,3.56c-2.59-5.99-4.8-5.37-12.45-7.11
	c-8.55-53.63-16.89-100.89-3.56-158.24C720.04,46.45,723.94,44.5,726.3,42.56z"/>
<path class="st0" d="M806.31,90.56c12.26,0.19,18.8-4.09,30.23-7.11c25.31-6.7,73.37-5.24,97.79,0c3.32,5.22,4.75,5.17,5.33,14.22
	c-2.47,3.27-1.54,4.7-5.33,7.11c-11.41,6.43-27.81,1.12-39.12,3.56c-14.53,3.13-73.74,17.88-83.56,14.22
	c-8.63-2.08-12.56-4.97-14.22-14.22c2.15-3.33,3.04-9.34,5.33-12.45C805.35,92.3,805.22,96.88,806.31,90.56z"/>
<path class="st0" d="M914.76,122.57c7.59,0.62,19.92,1.63,24.89,5.33c2.4,3.97,1.98,12.88,1.78,19.56
	c-24.2,13.1-69.65,9.08-92.45,23.11c38.77,1.21,58.46-1.69,106.68-1.78c1.79,5.87,3.23,7.36,3.56,16c-2.7,2.92-3.99,6.31-7.11,8.89
	c-19.85,15.47-100.93,22.6-133.35,14.22c-1.38-7.04-3.18-6.55-5.33-12.45c6.35-10.1,2.85-13.06,10.67-21.34
	c-9.3-2.51-10.46-6.74-16-12.45c2.37-5.93,4.74-11.85,7.11-17.78c14.6-10.57,42.28-13.61,62.23-17.78
	C890.16,123.46,905.1,128.13,914.76,122.57z"/>
<path class="st0" d="M672.96,113.68c0-2.37,0-4.74,0-7.11c-10.58-2.04-17.32-8.21-28.45-10.67c-20.36-4.49-39.26,3.9-56.9-1.78
	c-1.17-0.47-9.67-11.22-12.45-16c-2.96-0.59-5.93-1.19-8.89-1.78c0-1.78,0-3.56,0-5.33c-13.84-3.2-29.42-5.33-42.67-8.89
	c-8.71-2.34-20.21,1.75-26.67-1.78c-0.07-0.01-6.4,0.39-3.56-1.78c1.19,0,2.37,0,3.56,0c-1.05-8.87-3.6-10.27-7.11-16
	c-18.33-0.24-52.13-3.57-62.23,3.56c-3.43-2.55-29.04-2.77-39.12,0c-34.99,9.63-76.4,25.13-108.46,30.23
	c-1.97-5.5-3.48-13.75-3.56-16c-3.36-1.82-4.81-2.52-7.11-5.33c-64.57-0.41-115.89,26.3-165.35,48.01
	c-3.62,8.32-5.73,19.95-10.67,28.45c27.13,36.83,47.9,33.79,92.45,55.12c8.35,4,15.94,2.22,24.89,7.11
	c-9.46,16.8-76.96,8.04-97.79,8.89c-12.02,0.49-36,3.12-44.45-1.78c-7.98-0.55-8.55-1.83-14.22-3.56c1.67-4.12,0.78-2.86,3.56-5.33
	c-2.52-4.66-5.73-5.12-8.89-8.89c-17.64,0.02-24.72,4.16-35.56,8.89c-1,8.34,0.28,24.87,3.56,33.78
	c40.28,9.61,94.8,8.01,144.02,12.45c16.59-0.59,33.19-1.19,49.78-1.78c2.96,2.96,5.93,5.93,8.89,8.89
	c11.41,7.53,30.56,14.92,42.67,19.56c18.86,7.22,67.08,19.15,83.56,7.11c30.36-3.02,32.98-45.64,32-67.56
	c12.7,6.51,29.86,12.52,44.45,17.78c1.67,7.69,4.03,16.99,3.56,21.34c6.6,1.87,13.73,2.36,17.78,5.33
	c13.61-0.57,15.79-10.19,17.78-21.34c11.15,3.51,114.59,14.15,129.79,8.89c8.75,2.22,34.29,8.34,48.01,3.56
	c6.52-2.27,33.36-19.67,40.89-24.89C709.6,194.56,716.41,124.49,672.96,113.68z M338.7,231.02c-2.03,5.39-4.3,6.45-7.11,10.67
	c-32.92,3.88-36.28-6.34-64.01-8.89c-0.59-1.78-1.19-3.56-1.78-5.33c8.07-3.42,14.09-6.61,19.56-12.45
	c2.1-2.78,3.29-7.85,5.33-10.67c-3.07-11.68-18.97-18.92-19.56-30.23c-4.15,0-8.3,0-12.45,0c0-1.78,0-3.56,0-5.33
	c-12.74-2.33-26.01-15.59-37.34-12.45c-0.59,0-1.19,0-1.78,0c0.59-1.19,1.19-2.37,1.78-3.56c-25.68-2.63-59.47-18.01-78.23-30.23
	c20.67-17.54,67.4-28.54,101.34-30.23c-0.59,6.52-1.19,13.04-1.78,19.56c1.78,2.37,3.56,4.74,5.33,7.11
	c19.54,0.61,64.35-9.5,80.01-19.56c0.59,0,1.19,0,1.78,0c3.41,17.87-3.29,29.45,0,46.23c3.47,17.7,6.11,40.26,7.11,55.12
	C337.43,208.3,341.19,225.8,338.7,231.02z M413.38,154.57c-13.66,3.39-27.6,9.38-40.89,8.89c-0.05-14.67,2.22-57.3-1.78-65.78
	c1.95-9.06,4.85-7.92,10.67-12.45c4.06,1.38,3.99,1.85,7.11,3.56c-1.67,2.35-3.48,6.37-5.33,8.89c0.97,7.98,2.25,7.57,5.33,12.45
	c10.21,0.86,13.76,2.97,23.11,0c0.59,0.59,1.19,1.19,1.78,1.78C409.68,117.72,414.11,143.73,413.38,154.57z M456.05,101.23
	c6.12-1.39,22.38-1.94,28.45-5.33c18.96,1.78,37.93,3.56,56.9,5.33c-10.14,28.37-55.53,35.17-85.34,44.45
	C450.72,129.88,453.6,118.63,456.05,101.23z M543.17,197.24c-0.46,0.42-64.84-3.84-72.9-8.89c-8.25-0.54-7.45-0.18-10.67-5.33
	c-0.59-0.59-1.19-1.19-1.78-1.78c0.59,0,1.19,0,1.78,0c6.98-9.53,48.89-13.96,60.45-23.11c7.56,7.22,4.76,12.99,17.78,16
	c0.69,9.18,2.88,15.67,7.11,21.34C544.35,196.06,543.76,196.65,543.17,197.24z M665.85,167.02c-2.06,17.67-21.5,24.41-35.56,30.23
	c-11.15,7.28-45.74-13.21-53.34-16c-1.19-6.52-2.37-13.04-3.56-19.56c1.15-9.11,5.67-15.75,7.11-24.89
	c6.48-3.33,14.9-6.4,21.34-10.67c28.72-0.69,56.69,0.56,64.01,21.34C668.45,151.45,668.48,163.02,665.85,167.02z"/>
</svg>
